<svg xmlns="http://www.w3.org/2000/svg" fill="none" viewBox="0 0 1442 172">
  <path d="M60.22 155.277C32.5 132.245 0 148.912 0 148.912v23.084h1442V8.812c-168.37-41.344-239.44 76.215-239.44 76.215-34.68-4.05-38.12 38.068-38.12 38.068-43.58-32.288-82.06 10.382-82.06 10.382-5.98-50.327-47.2-58.804-47.2-58.804-22.18-64.943-71.133-27.83-71.133-27.83C921-34.756 866.429 30.057 866.429 30.057c-39.444-13.696-37.861 31.367-37.861 31.367-33.116-.92-39.281 28.054-39.281 28.054C715.377-24.579 656 52.245 656 52.245c-53.117-12-77-7-89.5 30.767-44-13.767-55.5 30.643-55.5 30.643s-9.46-66.373-42-80.176c-41.651-17.668-82.5 19.266-99 60.176-66.35-38.91-66.35 34.3-66.35 34.3-70.285-14.322-112.524 18.743-112.524 18.743C152.5 103.955 84 103.955 60.22 155.277z" fill="#fff"/>
</svg>
