<svg xmlns="http://www.w3.org/2000/svg" version="1.1" viewBox="0 0 1920 1080">
  <path fill="#5842c3" d="M0 0h1920v1080H0z"/>
  <path d="M0-1080c-20.987 64.52-132.992 232.844-125.925 387.12 7.068 154.275 167.68 370.685 168.33 538.532C43.054 13.5-110.864 172.07-122.031 314.204c-11.166 142.135 81.25 244.633 97.435 384.26 16.185 139.625 3.527 270.384-.326 453.495-3.853 183.11-26.946 477.163-22.792 645.17C-43.561 1965.135-7.952 2099.52 0 2160h1920v-3240z" fill="url(&quot;#k93Qsagf7a&quot;)" transform="rotate(45 1061.919 418.106) scale(1.15)"/>
  <path d="M274.286-1080C292.208-934.671 383.65-494.4 381.82-208.027c-1.828 286.373-95.569 595.177-118.507 846.269-22.94 251.091-20.954 406.654-19.125 660.28 1.828 253.627 25.08 717.898 30.097 861.478H1920v-3240z" fill="url(&quot;#k93Qsagf7b&quot;)" transform="rotate(45 1061.919 418.106) scale(1.15)"/>
  <path d="M548.571-1080c12.237 80.319 85.234 303.155 73.42 481.912-11.813 178.757-142.042 400.486-144.3 590.63-2.257 190.144 119.351 373.86 130.758 550.236 11.406 176.378-71.497 348.418-62.321 508.027 9.176 159.61 116.971 264.763 117.378 449.629.408 184.865-95.779 549.638-114.935 659.566H1920v-3240z" fill="url(&quot;#k93Qsagf7c&quot;)" transform="rotate(45 1061.919 418.106) scale(1.15)"/>
  <path d="M822.857-1080c-11.515 106.618-65.015 480.492-69.09 639.709-4.074 159.217 41.2 162.187 44.646 315.591 3.446 153.404-14.462 418.827-23.968 604.831-9.506 186.004-40.746 326.08-33.07 511.192 7.678 185.113 65.55 404.703 79.13 599.483 13.58 194.779 1.96 474.328 2.352 569.194H1920v-3240z" fill="url(&quot;#k93Qsagf7d&quot;)" transform="rotate(45 1061.919 418.106) scale(1.15)"/>
  <path d="M1097.143-1080c4.351 72.369 5.633 286.2 26.11 434.212 20.476 148.012 113.074 312.763 96.75 453.863-16.324 141.1-155.878 232.674-194.697 392.737-38.818 160.063-55.462 404.36-38.211 567.642 17.25 163.281 118.569 247.012 141.717 412.045 23.149 165.033 2.453 414.902-2.825 578.152-5.278 163.25-24.037 334.457-28.844 401.349H1920v-3240z" fill="url(&quot;#k93Qsagf7e&quot;)" transform="rotate(45 1061.919 418.106) scale(1.15)"/>
  <path d="M1371.429-1080c9.95 92.594 64.928 363.886 59.705 555.563-5.224 191.676-73.554 434.46-91.046 594.497-17.493 160.038-30.3 200.604-13.91 365.728 16.392 165.123 96.233 439.536 112.256 625.015 16.023 185.48-4.95 304.664-16.117 487.864-11.168 183.2-42.407 509.444-50.888 611.333H1920v-3240z" fill="url(&quot;#k93Qsagf7f&quot;)" transform="rotate(45 1061.919 418.106) scale(1.15)"/>
  <path d="M1645.714-1080c-7.328 61.282-40.149 206.152-43.968 367.69-3.819 161.538 22.658 412.702 21.053 601.539-1.604 188.836-18.553 387.392-30.68 531.48-12.128 144.088-57.98 196.44-42.086 333.048 15.895 136.607 103.026 311.072 137.453 486.596 34.427 175.525 76.072 413.275 69.11 566.55-6.962 153.274-92.401 294.247-110.882 353.097H1920v-3240z" fill="url(&quot;#k93Qsagf7g&quot;)" transform="rotate(45 1061.919 418.106) scale(1.15)"/>
  <defs>
    <linearGradient x1=".1" y1="0" x2="0" y2="1" id="k93Qsagf7a">
      <stop stop-color="#5842c3" offset="0"/>
      <stop stop-color="#4242c3" offset="0"/>
    </linearGradient>
    <linearGradient x1=".1" y1="0" x2="0" y2="1" id="k93Qsagf7b">
      <stop stop-color="#4e39b3" offset="0"/>
      <stop stop-color="#3a39b3" offset=".143"/>
    </linearGradient>
    <linearGradient x1=".1" y1="0" x2="0" y2="1" id="k93Qsagf7c">
      <stop stop-color="#4633a0" offset="0"/>
      <stop stop-color="#3433a0" offset=".286"/>
    </linearGradient>
    <linearGradient x1=".1" y1="0" x2="0" y2="1" id="k93Qsagf7d">
      <stop stop-color="#3d2d8d" offset="0"/>
      <stop stop-color="#2d2d8d" offset=".429"/>
    </linearGradient>
    <linearGradient x1=".1" y1="0" x2="0" y2="1" id="k93Qsagf7e">
      <stop stop-color="#35277a" offset="0"/>
      <stop stop-color="#27277a" offset=".571"/>
    </linearGradient>
    <linearGradient x1=".1" y1="0" x2="0" y2="1" id="k93Qsagf7f">
      <stop stop-color="#2d2167" offset="0"/>
      <stop stop-color="#212167" offset=".714"/>
    </linearGradient>
    <linearGradient x1=".1" y1="0" x2="0" y2="1" id="k93Qsagf7g">
      <stop stop-color="#251b55" offset="0"/>
      <stop stop-color="#1b1b55" offset=".857"/>
    </linearGradient>
  </defs>
</svg>
