<svg xmlns="http://www.w3.org/2000/svg" version="1.1" viewBox="0 0 1920 1080">
  <path fill="#6e56cf" d="M0 0h1920v1080H0z"/>
  <path d="M0-1080c-3.01 68.646-35.465 247.057-18.064 411.877C-.664-503.303 97.14-251.086 104.404-91.078 111.67 68.93 55.817 130.619 25.53 291.926-4.758 453.233-60.594 731.082-77.322 876.763c-16.728 145.681-15.667 164.08 2.484 289.25 18.15 125.17 93.95 296.104 106.423 461.768C44.058 1793.446 5.265 2071.297 0 2160h1920v-3240z" fill="url(&quot;#Vm9JEQfOHa&quot;)" transform="rotate(45 1081.834 414.752) scale(1.15)"/>
  <path d="M213.333-1080c13.946 115.122 97.47 472.136 83.674 690.733-13.795 218.598-135.958 400.034-166.445 620.85-30.487 220.818-41.853 476.058-16.477 704.05 25.376 227.994 152.191 459.848 168.733 663.909 16.541 204.06-57.904 467.048-69.485 560.458H1920v-3240z" fill="url(&quot;#Vm9JEQfOHb&quot;)" transform="rotate(45 1081.834 414.752) scale(1.15)"/>
  <path d="M426.667-1080c-.565 122.066 3.218 500.578-3.39 732.397-6.606 231.819-26 459.949-36.253 658.518-10.253 198.57-49.465 331.522-25.265 532.899 24.2 201.377 159.647 455.997 170.465 675.362 10.818 219.364-87.964 534.02-105.557 640.824H1920v-3240z" fill="url(&quot;#Vm9JEQfOHc&quot;)" transform="rotate(45 1081.834 414.752) scale(1.15)"/>
  <path d="M640-1080c-3.6 104.478-23.21 407.594-21.6 626.868 1.61 219.275 20.822 478.982 31.258 688.78 10.436 209.797 48.803 367.33 31.36 570.007-17.445 202.678-129.187 420.336-136.023 646.06C538.158 1677.44 624.165 2041.953 640 2160h1280v-3240z" fill="url(&quot;#Vm9JEQfOHd&quot;)" transform="rotate(45 1081.834 414.752) scale(1.15)"/>
  <path d="M853.333-1080c13.098 84.794 75.336 374.859 78.588 508.765 3.252 133.906-29.266 159.432-59.076 294.673-29.811 135.242-117.278 364.84-119.789 516.777-2.51 151.936 87.804 265.14 104.728 394.844 16.924 129.704-14.823 267.145-3.186 383.381 11.636 116.237 62.201 184.156 73.004 314.038 10.803 129.882 4.192 327.334-8.186 465.255-12.378 137.92-55.069 301.89-66.083 362.267H1920v-3240z" fill="url(&quot;#Vm9JEQfOHe&quot;)" transform="rotate(45 1081.834 414.752) scale(1.15)"/>
  <path d="M1066.667-1080c17.671 73.84 100.503 296.979 106.029 443.037 5.526 146.058-37.768 267.609-72.873 433.312-35.105 165.704-124.872 404.997-137.757 560.908-12.884 155.911 27.809 232.72 60.45 374.56 32.641 141.84 121.187 304.211 135.398 476.477 14.211 172.266-34.923 398.502-50.131 557.12-15.208 158.617-34.264 328.822-41.116 394.586H1920v-3240z" fill="url(&quot;#Vm9JEQfOHf&quot;)" transform="rotate(45 1081.834 414.752) scale(1.15)"/>
  <path d="M1280-1080c-16.012 112.921-99.298 454.895-96.07 677.526 3.229 222.632 94.494 437.47 115.44 658.263 20.946 220.794 13.464 471.234 10.237 666.5-3.227 195.265-24.664 298.81-29.599 505.096-4.934 206.285-.007 610.512-.008 732.615h640v-3240z" fill="url(&quot;#Vm9JEQfOHg&quot;)" transform="rotate(45 1081.834 414.752) scale(1.15)"/>
  <path d="M1493.333-1080c1.321 87.787-4.396 336.98 7.925 526.722 12.321 189.74 77.069 432.368 66.003 611.725-11.065 179.357-135.329 295.078-132.396 464.417 2.933 169.338 135.547 373.953 149.993 551.613 14.446 177.66-48.063 333.428-63.317 514.349-15.254 180.92-23.506 475.978-28.208 571.174H1920v-3240z" fill="url(&quot;#Vm9JEQfOHh&quot;)" transform="rotate(45 1081.834 414.752) scale(1.15)"/>
  <path d="M1706.667-1080c.864 77.177 16.365 276.348 5.184 463.064-11.18 186.715-86.393 451.511-72.266 657.228 14.126 205.717 136.963 410.674 157.026 577.071 20.063 166.398-31.14 257.905-36.65 421.313-5.508 163.41 12.48 372.253 3.598 559.14-8.882 186.887-47.41 468.487-56.892 562.184H1920v-3240z" fill="url(&quot;#Vm9JEQfOHi&quot;)" transform="rotate(45 1081.834 414.752) scale(1.15)"/>
  <defs>
    <linearGradient x1=".1" y1="0" x2="0" y2="1" id="Vm9JEQfOHa">
      <stop stop-color="#6e56cf" offset="0"/>
      <stop stop-color="#5a56cf" offset="0"/>
    </linearGradient>
    <linearGradient x1=".1" y1="0" x2="0" y2="1" id="Vm9JEQfOHb">
      <stop stop-color="#5e43ca" offset="0"/>
      <stop stop-color="#4743ca" offset=".111"/>
    </linearGradient>
    <linearGradient x1=".1" y1="0" x2="0" y2="1" id="Vm9JEQfOHc">
      <stop stop-color="#5136bf" offset="0"/>
      <stop stop-color="#3a36bf" offset=".222"/>
    </linearGradient>
    <linearGradient x1=".1" y1="0" x2="0" y2="1" id="Vm9JEQfOHd">
      <stop stop-color="#4a31ad" offset="0"/>
      <stop stop-color="#3531ad" offset=".333"/>
    </linearGradient>
    <linearGradient x1=".1" y1="0" x2="0" y2="1" id="Vm9JEQfOHe">
      <stop stop-color="#422c9a" offset="0"/>
      <stop stop-color="#302c9a" offset=".444"/>
    </linearGradient>
    <linearGradient x1=".1" y1="0" x2="0" y2="1" id="Vm9JEQfOHf">
      <stop stop-color="#3a2788" offset="0"/>
      <stop stop-color="#2a2788" offset=".556"/>
    </linearGradient>
    <linearGradient x1=".1" y1="0" x2="0" y2="1" id="Vm9JEQfOHg">
      <stop stop-color="#322175" offset="0"/>
      <stop stop-color="#242175" offset=".667"/>
    </linearGradient>
    <linearGradient x1=".1" y1="0" x2="0" y2="1" id="Vm9JEQfOHh">
      <stop stop-color="#2a1c63" offset="0"/>
      <stop stop-color="#1e1c63" offset=".778"/>
    </linearGradient>
    <linearGradient x1=".1" y1="0" x2="0" y2="1" id="Vm9JEQfOHi">
      <stop stop-color="#221750" offset="0"/>
      <stop stop-color="#181750" offset=".889"/>
    </linearGradient>
  </defs>
</svg>
