<svg xmlns="http://www.w3.org/2000/svg" version="1.1" viewBox="0 0 1920 1080">
  <path fill="#1c172b" d="M0 0h1920v1080H0z"/>
  <path d="M0-1080c11.292 86.29 77.791 327.703 67.75 517.737C57.71-372.229-56.14-118.323-60.248 60.202-64.356 238.728 44.556 330.076 43.102 508.89 41.645 687.7-67.302 951.027-68.979 1133.078c-1.676 182.05 90.525 296.961 102.021 468.115C44.539 1772.347 5.507 2066.866 0 2160h1920v-3240z" fill="url(&quot;#dDU_vUhFZa&quot;)" transform="rotate(45 1092.688 412.923) scale(1.15)"/>
  <path d="M320-1080c-15 150.7-105.559 651.323-90.002 904.196C245.555 77.07 411.99 179.56 413.34 437.24c1.35 257.68-159.692 645.91-175.25 933.036C222.535 1657.402 306.349 2028.379 320 2160h1600v-3240z" fill="url(&quot;#dDU_vUhFZb&quot;)" transform="rotate(45 1092.688 412.923) scale(1.15)"/>
  <path d="M640-1080c7.131 92.572 46.46 373.344 42.788 555.432C679.116-342.48 621.366-149.41 617.97 12.53c-3.396 161.938 27.859 269.767 44.443 434.536 16.584 164.77 74.509 366.672 55.062 554.08-19.447 187.407-158.832 377.222-171.744 570.365C532.818 1764.653 624.288 2061.918 640 2160h1280v-3240z" fill="url(&quot;#dDU_vUhFZc&quot;)" transform="rotate(45 1092.688 412.923) scale(1.15)"/>
  <path d="M960-1080c3.6 104.795 5.326 452.299 21.6 628.769 16.273 176.47 80.651 252.645 76.041 430.052-4.61 177.407-73.185 466.038-103.701 634.39-30.517 168.353-89.315 197.082-79.397 375.725 9.918 178.643 124.662 500.956 138.905 696.133 14.243 195.178-44.54 395.776-53.448 474.931h960v-3240z" fill="url(&quot;#dDU_vUhFZd&quot;)" transform="rotate(45 1092.688 412.923) scale(1.15)"/>
  <path d="M1280-1080c8.55 97.995 57.935 383.947 51.305 587.973-6.63 204.026-71.841 396.271-91.085 636.183-19.243 239.912-27.673 579.642-24.377 803.287 3.295 223.645 33.456 336.489 44.149 538.582 10.693 202.093 16.673 561.646 20.008 673.975h640v-3240z" fill="url(&quot;#dDU_vUhFZe&quot;)" transform="rotate(45 1092.688 412.923) scale(1.15)"/>
  <path d="M1600-1080c15.327 98.407 92.994 411.134 91.96 590.441-1.034 179.308-70.542 315.462-98.166 485.405-27.623 169.943-83.269 362.894-67.576 534.254 15.692 171.359 138.839 301.74 161.732 493.902 22.893 192.161-9.714 469.734-24.373 659.067-14.658 189.333-52.98 397.443-63.577 476.931h320v-3240z" fill="url(&quot;#dDU_vUhFZf&quot;)" transform="rotate(45 1092.688 412.923) scale(1.15)"/>
  <defs>
    <linearGradient x1=".1" y1="0" x2="0" y2="1" id="dDU_vUhFZa">
      <stop stop-color="#1c172b" offset="0"/>
      <stop stop-color="#19172b" offset="0"/>
    </linearGradient>
    <linearGradient x1=".1" y1="0" x2="0" y2="1" id="dDU_vUhFZb">
      <stop stop-color="#181425" offset="0"/>
      <stop stop-color="#151425" offset=".167"/>
    </linearGradient>
    <linearGradient x1=".1" y1="0" x2="0" y2="1" id="dDU_vUhFZc">
      <stop stop-color="#14111f" offset="0"/>
      <stop stop-color="#12111f" offset=".333"/>
    </linearGradient>
    <linearGradient x1=".1" y1="0" x2="0" y2="1" id="dDU_vUhFZd">
      <stop stop-color="#110e1a" offset="0"/>
      <stop stop-color="#0f0e1a" offset=".5"/>
    </linearGradient>
    <linearGradient x1=".1" y1="0" x2="0" y2="1" id="dDU_vUhFZe">
      <stop stop-color="#0d0b14" offset="0"/>
      <stop stop-color="#0b0b14" offset=".667"/>
    </linearGradient>
    <linearGradient x1=".1" y1="0" x2="0" y2="1" id="dDU_vUhFZf">
      <stop stop-color="#09070e" offset="0"/>
      <stop stop-color="#08070e" offset=".833"/>
    </linearGradient>
  </defs>
</svg>
