<svg xmlns="http://www.w3.org/2000/svg" version="1.1" viewBox="0 0 1920 1080">
  <path fill="#392c72" d="M0 0h1920v1080H0z"/>
  <path d="M0-1080c17.494 87.583 104.135 374.194 104.967 525.5.832 151.307-64.966 256.276-99.977 382.34-35.01 126.063-88.116 212.3-110.085 374.044-21.97 161.743-57.999 417.173-21.733 596.413 36.266 179.241 217.038 325.606 239.329 479.031 22.29 153.425-86.834 294.407-105.584 441.52C-11.833 1865.958 1.153 2086.474 0 2160h1920v-3240z" fill="url(&quot;#tC_2JfadOa&quot;)" transform="rotate(45 1053.297 419.558) scale(1.15)"/>
  <path d="M274.286-1080c15.888 116.657 102.488 477.939 95.332 699.945C362.462-158.05 260.124 30.48 231.35 252.035c-28.773 221.555-46.667 484.71-34.373 697.237 12.294 212.527 95.254 376.135 108.139 577.923C318 1728.983 279.424 2054.533 274.286 2160H1920v-3240z" fill="url(&quot;#tC_2JfadOb&quot;)" transform="rotate(45 1053.297 419.558) scale(1.15)"/>
  <path d="M548.571-1080c-18.006 83.417-98.335 339.797-108.04 500.502-9.704 160.706 18.6 307.538 49.815 463.73C521.56 40.427 605.48 189.909 627.824 357.66c22.344 167.752 5.998 403.006-3.415 533.084-9.414 130.08-22.465 107.68-53.067 247.388-30.603 139.708-126.753 420.55-130.548 590.86-3.796 170.312 89.814 359.173 107.777 431.008H1920v-3240z" fill="url(&quot;#tC_2JfadOc&quot;)" transform="rotate(45 1053.297 419.558) scale(1.15)"/>
  <path d="M822.857-1080c-16.054 120.823-92.599 505.914-96.322 724.936-3.723 219.022 70.497 382.372 73.985 589.195 3.487 206.823-51.93 457.14-53.06 651.744-1.131 194.604 33.709 303.529 46.275 515.883 12.566 212.354 24.268 631.868 29.122 758.242H1920v-3240z" fill="url(&quot;#tC_2JfadOd&quot;)" transform="rotate(45 1053.297 419.558) scale(1.15)"/>
  <path d="M1097.143-1080c14.65 82.56 73.55 349.924 87.906 495.359 14.355 145.435 17.11 247.51-1.773 377.249-18.885 129.739-116.242 289.379-111.533 401.185 4.709 111.806 153.004 141.024 139.785 269.653-13.219 128.628-184.695 356.658-219.1 502.12-34.403 145.46-13.58 222.293 12.676 370.645 26.256 148.352 129.523 382.168 144.863 519.467 15.34 137.298-44.02 253.602-52.824 304.322H1920v-3240z" fill="url(&quot;#tC_2JfadOe&quot;)" transform="rotate(45 1053.297 419.558) scale(1.15)"/>
  <path d="M1371.429-1080c-11.73 91.838-77.525 394.71-70.373 551.026 7.153 156.316 91.53 238.96 113.285 386.868 21.755 147.91 21.394 340.58 17.246 500.587-4.147 160.007-16.27 317.772-42.133 459.456-25.862 141.685-115.54 245.594-113.04 390.651 2.5 145.057 112.205 321.123 128.041 479.692 15.836 158.568-27.522 393.1-33.026 471.72H1920v-3240z" fill="url(&quot;#tC_2JfadOf&quot;)" transform="rotate(45 1053.297 419.558) scale(1.15)"/>
  <path d="M1645.714-1080c15.126 131.46 77.443 497.7 90.752 788.76 13.309 291.059.91 681.252-10.897 957.597-11.806 276.345-46.632 451.533-59.941 700.474-13.31 248.94-16.595 660.974-19.914 793.169H1920v-3240z" fill="url(&quot;#tC_2JfadOg&quot;)" transform="rotate(45 1053.297 419.558) scale(1.15)"/>
  <defs>
    <linearGradient x1=".1" y1="0" x2="0" y2="1" id="tC_2JfadOa">
      <stop stop-color="#392c72" offset="0"/>
      <stop stop-color="#2d2c72" offset="0"/>
    </linearGradient>
    <linearGradient x1=".1" y1="0" x2="0" y2="1" id="tC_2JfadOb">
      <stop stop-color="#332866" offset="0"/>
      <stop stop-color="#292866" offset=".143"/>
    </linearGradient>
    <linearGradient x1=".1" y1="0" x2="0" y2="1" id="tC_2JfadOc">
      <stop stop-color="#2d235b" offset="0"/>
      <stop stop-color="#24235b" offset=".286"/>
    </linearGradient>
    <linearGradient x1=".1" y1="0" x2="0" y2="1" id="tC_2JfadOd">
      <stop stop-color="#281f4f" offset="0"/>
      <stop stop-color="#201f4f" offset=".429"/>
    </linearGradient>
    <linearGradient x1=".1" y1="0" x2="0" y2="1" id="tC_2JfadOe">
      <stop stop-color="#221a44" offset="0"/>
      <stop stop-color="#1b1a44" offset=".571"/>
    </linearGradient>
    <linearGradient x1=".1" y1="0" x2="0" y2="1" id="tC_2JfadOf">
      <stop stop-color="#1c1638" offset="0"/>
      <stop stop-color="#161638" offset=".714"/>
    </linearGradient>
    <linearGradient x1=".1" y1="0" x2="0" y2="1" id="tC_2JfadOg">
      <stop stop-color="#16112d" offset="0"/>
      <stop stop-color="#11112d" offset=".857"/>
    </linearGradient>
  </defs>
</svg>
