<svg xmlns="http://www.w3.org/2000/svg" fill="none" viewBox="0 0 601 124">
  <path d="M37.5 86.1C31 80 27.1 71.6 27.1 62c0-9.6 3.8-18 10-24.1 5.4-5.4 5.4-13.8 0-19.2-5.4-5.4-13.8-5.4-19.2 0C7.2 29.8.3 45.1.3 62s6.9 32.2 18 43.3c5.4 5.4 13.8 5.4 19.2 0 4.9-5.4 4.9-13.8 0-19.2z" fill="#FFD85F"/>
  <path d="M37.5 37.9c6.1-6.5 14.6-10.3 24.1-10.3 9.5 0 18 3.8 24.1 10 5.4 5.4 13.8 5.4 19.2 0 5.4-5.4 5.4-13.8 0-19.2C93.8 7.7 78.5.8 61.6.8s-32.2 6.9-43.3 18c-5.4 5.4-5.4 13.8 0 19.2 5.4 4.8 13.8 4.8 19.2-.1z" fill="#3BB4E7"/>
  <path d="M85.7 86.1c-6.1 6.5-14.6 10.3-24.1 10.3-9.5 0-18-3.8-24.1-10-5.4-5.4-13.8-5.4-19.2 0-5.4 5.4-5.4 13.8 0 19.2 11.1 10.7 26.4 17.6 43.3 17.6s32.2-6.9 43.3-18c5.4-5.4 5.4-13.8 0-19.2-5.4-4.8-13.8-4.8-19.2.1z" fill="#ED5C68"/>
  <path d="M27.9 41.7c7.4 0 13.4-6 13.4-13.4s-6-13.4-13.4-13.4-13.4 6-13.4 13.4 6 13.4 13.4 13.4z" fill="#308BC5"/>
  <path d="M27.9 109.1c7.4 0 13.4-5.999 13.4-13.4 0-7.4-6-13.4-13.4-13.4s-13.4 6-13.4 13.4c0 7.401 6 13.4 13.4 13.4z" fill="#D5465F"/>
  <path d="M165.1 74.6c3.8-3.1 4.6-1.1 7.7 1.9 1.5 1.5 6.1 4.6 3.1 6.9-6.1 5-11.5 7.3-19.5 7.3-17.6 0-30.3-13.4-29.5-30.7.4-8 3.4-15.3 9.6-20.3 5.7-4.6 12.6-6.9 19.9-6.5 3.8 0 6.9.8 10.3 1.9 2.3.8 4.6 1.9 6.5 3.4 3.8 3.1 1.9 4.6-.8 7.7-.8.8-1.1 1.5-1.9 1.9-1.5 1.5-2.7 2.7-4.6 1.1-3.8-2.7-9.2-4.2-13.8-3.1-15.3 3.8-14.6 31 4.2 31 3 .6 6.5-.5 8.8-2.5zm425.6 15c-2.7 0-4.6-1.9-4.6-4.6V24.8c0-2.7 1.9-4.6 4.6-4.6h5c2.7 0 4.6 1.9 4.6 4.6V85c0 2.7-1.9 4.6-4.6 4.6h-5zm-26.4-6.9c-5.4 5-10.7 7.7-18.4 7.7-15.7 0-23-13-23-27.2V38.7c0-2.7 1.9-4.6 4.6-4.6h5c2.7 0 4.6 1.9 4.6 4.6v24.5c0 8 4.2 14.2 13 14.2 8.4 0 13.8-7.3 13.8-14.9V38.7c0-2.7 1.9-4.6 4.6-4.6h5c2.7 0 4.6 1.9 4.6 4.6V85c0 2.7-1.9 4.6-4.6 4.6h-4.2c-2.7 0-4.2-2.3-4.6-4.6l-.4-2.3zm-59.8-48.3h9.6c2.7 0 4.6 2.3 4.6 4.6v3.1c0 2.7-1.9 4.6-4.6 4.6h-9.6V85c0 2.7-1.9 4.6-4.6 4.6h-5c-2.7 0-4.6-1.9-4.6-4.6V32.5c0-11.5 6.5-20.7 18.4-21.8h7.3c2.7 0 4.6 2.3 4.6 4.6v3.1c0 2.7-1.9 4.6-4.6 4.6h-3.8c-5.7 0-8 4.2-8 9.6v1.9h.3v-.1zm-34.9 0h10.7c2.7 0 4.6 1.9 4.6 4.6v3.1c0 2.7-1.9 4.6-4.6 4.6h-10.7V70c0 4.6 2.3 6.9 6.9 6.9h2.3c2.7 0 4.6 1.9 4.6 4.6v3.4c0 2.7-1.9 4.6-4.6 4.6h-6.5c-11.5-.8-16.5-8-16.5-19.5V24.8c0-2.7 1.9-4.6 4.6-4.6h5c2.7 0 4.6 1.9 4.6 4.6v9.6h-.4zm-153.6 0h10.7c2.7 0 4.6 1.9 4.6 4.6v3.1c0 2.7-1.9 4.6-4.6 4.6H316V70c0 4.6 2.3 7.3 6.9 7.3h2.3c2.7 0 4.6 1.9 4.6 4.6V85c0 2.7-1.9 4.6-4.6 4.6h-3.1c-12.6 0-19.9-5.4-19.9-19.5V24.9c0-2.7 1.9-4.6 4.6-4.6h5c2.7 0 4.6 1.9 4.6 4.6v9.6c0-.1-.4-.1-.4-.1zm-62.4 6.5c5-5 10.7-7.7 17.6-7.7 15.7 0 23.8 12.6 23.8 27.2V85c0 2.7-1.9 4.6-4.6 4.6h-5c-2.7 0-4.6-1.9-4.6-4.6V60.5c0-8-4.2-14.2-13-14.2-8.4 0-13.8 6.9-13.8 14.9V85c0 2.7-1.9 4.6-4.6 4.6h-5c-2.7 0-4.6-1.9-4.6-4.6V38.6c0-2.7 1.9-4.6 4.6-4.6h4.2c2.7 0 4.2 2.3 4.6 4.6l.4 2.3zm154 0c5-5 10.7-7.7 17.6-7.7 15.7 0 23.8 12.6 23.8 27.2V85c0 2.7-1.9 4.6-4.6 4.6h-5c-2.7 0-4.6-1.9-4.6-4.6V60.5c0-8-4.2-14.2-13-14.2-8.4 0-13.8 6.9-13.8 14.9V85c0 2.7-1.9 4.6-4.6 4.6h-5c-2.7 0-4.6-1.9-4.6-4.6V38.6c0-2.7 1.9-4.6 4.6-4.6h4.2c2.7 0 4.2 2.3 4.6 4.6l.4 2.3zm-201.2-8c-16.9 0-28.7 12.3-28.7 29.1s11.9 29.1 28.7 29.1c17.2 0 29.1-11.9 29.1-29.1 0-16.9-12.2-29.1-29.1-29.1zM346.7 67c1.1 7.7 8.8 11.1 16.1 11.1 3.4 0 7.3-.8 10.3-2.3.4-.4 1.1-.4 1.5-.8 1.9-1.1 3.4-1.5 5 0l2.7 2.7 2.3 2.3c2.3 3.1.8 3.8-1.9 5.4-5.7 3.8-13 5.7-19.9 5.7-18.4 0-30.7-11.1-30.7-29.5 0-17.6 12.3-29.1 29.5-29.1 18 0 28 10.3 28.4 28.4 0 5 .4 6.5-4.6 6.5h-38.7V67zM206.4 45.9c8.8 0 14.6 7.7 14.6 16.1 0 8.8-5.4 15.7-14.6 15.7s-14.6-6.9-14.6-15.7c0-8.8 5.8-16.1 14.6-16.1zM347 55.1h28.7c-1.1-7.3-6.9-10-13.8-10-7.2 0-12.9 3.5-14.9 10z" fill="#2A3039"/>
</svg>
