<svg xmlns="http://www.w3.org/2000/svg" version="1.1" viewBox="0 0 1920 1080">
  <path fill="#5746af" d="M0 0h1920v1080H0z"/>
  <path d="M0-1080c4.476 86.927 17.44 365.298 26.858 521.56 9.419 156.261 35.528 287.656 29.655 416.01C50.639-14.075-11.443 59.528-8.383 211.688c3.06 152.16 66.932 383.078 83.253 558.841 16.32 175.764 20.684 360.09 14.67 495.739-6.013 135.648-35.826 169.194-50.75 318.15C23.867 1733.372 6.465 2064.07 0 2160h1920v-3240z" fill="url(&quot;#bu9NVMvGva&quot;)" transform="rotate(45 1125.21 407.445) scale(1.15)"/>
  <path d="M274.286-1080c-13.107 83.169-61.864 339.46-78.642 499.014-16.777 159.554-28.092 288.25-22.025 458.312 6.067 170.061 54.486 355.286 58.427 562.055 3.94 206.77-39.54 498.637-34.783 678.562 4.756 179.926 50.484 227.315 63.321 400.991 12.837 173.676 11.418 534.222 13.702 641.066H1920v-3240z" fill="url(&quot;#bu9NVMvGvb&quot;)" transform="rotate(45 1125.21 407.445) scale(1.15)"/>
  <path d="M548.571-1080c3.184 99.414 33.946 411.297 19.1 596.486-14.846 185.189-116.178 363.72-108.176 514.647 8.003 150.928 129.458 202.68 156.191 390.92 26.734 188.24 6.112 532.86 4.21 738.525-1.903 205.665-3.74 328.896-15.627 495.466S557.854 2076.007 548.571 2160H1920v-3240z" fill="url(&quot;#bu9NVMvGvc&quot;)" transform="rotate(45 1125.21 407.445) scale(1.15)"/>
  <path d="M822.857-1080c-2.08 81.477-26.29 302.32-12.486 488.862 13.803 186.54 76.609 448.584 95.305 630.384 18.695 181.8 38.858 276.544 16.869 460.416-21.99 183.873-120.35 442.906-148.804 642.82-28.454 199.912-30.106 387.074-21.92 556.66 8.186 169.587 59.197 384.048 71.036 460.858H1920v-3240z" fill="url(&quot;#bu9NVMvGvd&quot;)" transform="rotate(45 1125.21 407.445) scale(1.15)"/>
  <path d="M1097.143-1080c1.443 85.633 8.003 347.019 8.657 513.796.654 166.777-19.271 322.003-4.733 486.868 14.537 164.864 77.603 379.572 91.958 502.32 14.355 122.747 24.367 93.373-5.828 234.165-30.194 140.793-161.702 428.65-175.337 610.59-13.635 181.938 79.313 332.331 93.527 481.042 14.214 148.71-6.87 342.682-8.244 411.219H1920v-3240z" fill="url(&quot;#bu9NVMvGve&quot;)" transform="rotate(45 1125.21 407.445) scale(1.15)"/>
  <path d="M1371.429-1080c-8.602 95.277-54.364 351.388-51.61 571.664 2.753 220.277 80.63 535.23 68.132 749.995-12.498 214.765-125.865 310.99-143.12 538.595-17.256 227.605 18.49 597.077 39.59 827.035 21.099 229.958 72.506 460.592 87.008 552.711H1920v-3240z" fill="url(&quot;#bu9NVMvGvf&quot;)" transform="rotate(45 1125.21 407.445) scale(1.15)"/>
  <path d="M1645.714-1080c13.248 84.378 94.27 376.997 79.485 506.265-14.786 129.268-133.86 167.779-168.2 269.344-34.34 101.566-31.96 193.588-37.839 340.05-5.879 146.46-23.305 367.665 2.565 538.717 25.871 171.052 133.317 359.888 152.66 487.593 19.342 127.705-35.47 152.978-36.605 278.635-1.134 125.658 28.475 338.742 29.797 475.308 1.322 136.566-18.219 286.74-21.863 344.088H1920v-3240z" fill="url(&quot;#bu9NVMvGvg&quot;)" transform="rotate(45 1125.21 407.445) scale(1.15)"/>
  <defs>
    <linearGradient x1=".1" y1="0" x2="0" y2="1" id="bu9NVMvGva">
      <stop stop-color="#5746af" offset="0"/>
      <stop stop-color="#4646af" offset="0"/>
    </linearGradient>
    <linearGradient x1=".1" y1="0" x2="0" y2="1" id="bu9NVMvGvb">
      <stop stop-color="#4e3f9d" offset="0"/>
      <stop stop-color="#3f409d" offset=".143"/>
    </linearGradient>
    <linearGradient x1=".1" y1="0" x2="0" y2="1" id="bu9NVMvGvc">
      <stop stop-color="#45388b" offset="0"/>
      <stop stop-color="#38398b" offset=".286"/>
    </linearGradient>
    <linearGradient x1=".1" y1="0" x2="0" y2="1" id="bu9NVMvGvd">
      <stop stop-color="#3c317a" offset="0"/>
      <stop stop-color="#31327a" offset=".429"/>
    </linearGradient>
    <linearGradient x1=".1" y1="0" x2="0" y2="1" id="bu9NVMvGve">
      <stop stop-color="#342a68" offset="0"/>
      <stop stop-color="#2a2a68" offset=".571"/>
    </linearGradient>
    <linearGradient x1=".1" y1="0" x2="0" y2="1" id="bu9NVMvGvf">
      <stop stop-color="#2b2256" offset="0"/>
      <stop stop-color="#222256" offset=".714"/>
    </linearGradient>
    <linearGradient x1=".1" y1="0" x2="0" y2="1" id="bu9NVMvGvg">
      <stop stop-color="#221b44" offset="0"/>
      <stop stop-color="#1b1b44" offset=".857"/>
    </linearGradient>
  </defs>
</svg>
