<svg xmlns="http://www.w3.org/2000/svg" fill="none" viewBox="0 0 118 40">
  <rect width="40" height="40" rx="10" fill="url(#uKivm8vQFa)"/>
  <path fill-rule="evenodd" clip-rule="evenodd" d="M34.974 24.103C34.51 16.236 27.984 10 20 10c-7.983 0-14.51 6.236-14.974 14.103.027.339.082.589.192.805a2 2 0 00.874.874c.402.205.92.217 1.908.218v-1c0-6.627 5.373-12 12-12s12 5.373 12 12v1c.988 0 1.506-.013 1.908-.218a2 2 0 00.874-.874c.11-.216.165-.466.192-.805z" fill="url(#uKivm8vQFb)"/>
  <path fill-rule="evenodd" clip-rule="evenodd" d="M20 17a8 8 0 00-8 8v1H9v-1c0-6.075 4.925-11 11-11s11 4.925 11 11v1h-3v-1a8 8 0 00-8-8z" fill="url(#uKivm8vQFc)"/>
  <path fill-rule="evenodd" clip-rule="evenodd" d="M27 26v-1a7 7 0 10-14 0v1h2a1 1 0 001-1 4 4 0 018 0 1 1 0 001 1h2z" fill="url(#uKivm8vQFd)"/>
  <path d="M53.607 13.724h-4.599V26h2.736v-3.528h1.989c2.997 0 4.914-1.548 4.914-4.518 0-2.961-1.917-4.23-5.04-4.23zm-1.863 6.633v-4.365h1.584c1.638 0 2.502.693 2.502 2.142 0 1.449-.864 2.223-2.502 2.223h-1.584zm11.168-7.245h-2.691V26h2.691V13.112zm9.43 4.518c-.72-1.161-1.89-1.773-3.357-1.773-2.61 0-4.374 2.061-4.374 5.175 0 3.123 1.737 5.184 4.374 5.184 1.467 0 2.637-.603 3.357-1.764V26h2.69v-9.927h-2.69v1.557zm-2.421 6.372c-1.512 0-2.62-1.116-2.62-2.97 0-1.836 1.108-2.961 2.62-2.961 1.476 0 2.583 1.116 2.583 2.961 0 1.872-1.107 2.97-2.583 2.97zm6.922-5.157c0 1.953 1.575 2.574 3.618 2.988 1.098.261 1.98.486 1.98 1.305 0 .747-.711 1.152-1.764 1.152-1.368 0-2.89-.576-3.915-1.215l-.135 2.214c.954.495 2.277.927 4.086.927 2.997 0 4.293-1.323 4.293-3.231 0-2.079-1.557-2.556-3.69-3.033-1.08-.279-1.935-.486-1.935-1.242 0-.693.72-.936 1.61-.936.937 0 2.242.279 3.304.792l.198-2.052c-.837-.387-1.998-.657-3.375-.657-2.493 0-4.275.864-4.275 2.988zm22.745-2.988c-1.701 0-2.97.801-3.591 2.016-.45-1.431-1.683-2.016-3.186-2.016-1.818 0-3.114.9-3.7 2.241v-2.025h-2.555V26h2.69v-6.345c.568-1.053 1.477-1.719 2.512-1.719.98 0 1.737.576 1.737 1.971V26h2.69v-6.624c.568-.891 1.405-1.44 2.35-1.44.98 0 1.728.576 1.728 1.971V26h2.691v-6.786c0-2.421-1.458-3.357-3.366-3.357zm6.779-.945c.936 0 1.602-.432 1.602-1.224 0-.783-.666-1.215-1.602-1.215s-1.602.432-1.602 1.215c0 .792.666 1.224 1.602 1.224zm1.35 1.161h-2.691V26h2.691v-9.927zm9.564 7.452c-.459.279-1.314.504-2.124.504-1.629 0-3.015-1.089-3.015-2.97 0-1.908 1.386-2.988 3.015-2.988.792 0 1.485.198 2.052.486l.117-2.16c-.621-.315-1.575-.54-2.745-.54-3.024 0-5.166 2.052-5.166 5.193 0 3.087 2.142 5.166 5.166 5.166 1.188 0 2.214-.234 2.835-.558l-.135-2.133z" fill="#000"/>
  <defs>
    <linearGradient id="uKivm8vQFa" x1="20" y1="0" x2="20" y2="40" gradientUnits="userSpaceOnUse">
      <stop stop-color="#F3F3F2"/>
      <stop offset=".99" stop-color="#EEEEEC"/>
    </linearGradient>
    <linearGradient id="uKivm8vQFb" x1="20" y1="10" x2="20" y2="26" gradientUnits="userSpaceOnUse">
      <stop stop-color="#0091FF"/>
      <stop offset="1" stop-color="#3E63DD"/>
    </linearGradient>
    <linearGradient id="uKivm8vQFc" x1="20" y1="14" x2="20" y2="26" gradientUnits="userSpaceOnUse">
      <stop stop-color="#46A758"/>
      <stop offset="1" stop-color="#30A46C"/>
    </linearGradient>
    <linearGradient id="uKivm8vQFd" x1="20" y1="18" x2="20" y2="26" gradientUnits="userSpaceOnUse">
      <stop stop-color="#F76808"/>
      <stop offset="1" stop-color="#E54D2E"/>
    </linearGradient>
  </defs>
</svg>
